<?xml version="1.0" encoding="utf-8"?>
<!-- Generator: Adobe Illustrator 16.0.0, SVG Export Plug-In . SVG Version: 6.00 Build 0)  -->
<!DOCTYPE svg PUBLIC "-//W3C//DTD SVG 1.1//EN" "http://www.w3.org/Graphics/SVG/1.1/DTD/svg11.dtd">
<svg version="1.1" id="Layer_1" xmlns="http://www.w3.org/2000/svg" xmlns:xlink="http://www.w3.org/1999/xlink" x="0px" y="0px"
	 width="1000px" height="1000px" viewBox="0 0 1000 1000" enable-background="new 0 0 1000 1000" xml:space="preserve">
<g>
	<circle fill="none" stroke="#FFFFFF" stroke-width="20" stroke-miterlimit="10" cx="505.028" cy="500" r="346.917"/>
	<path fill="#FFFFFF" stroke="#FFFFFF" stroke-miterlimit="10" d="M424.06,766.863c-26.82-7.902-53.64-19.729-80.46-35.483
		c-16.811-14.768-34.329-29.801-52.437-44.837c-84.014-130.512-79.859-261.023,12.463-391.536
		c13.325-9.765,26.65-18.561,39.974-26.387c-76.517,152.325-77.473,304.65-2.869,456.976c20.516,11.545,41.032,20.927,61.548,28.146
		c-0.532-1.952-1.057-3.904-1.576-5.856c-7.062-2.391-14.123-5.024-21.185-7.9c-54.209-163.979-52.858-327.959,4.056-491.938
		c13.495-5.964,26.99-10.934,40.486-14.91C385.194,411.045,385.194,588.954,424.06,766.863"/>
	<path fill="#FFFFFF" stroke="#FFFFFF" stroke-miterlimit="10" d="M572.76,282.201c-45.348-7.007-90.695-6.977-136.042,0.089
		c2.322-18.142,4.935-36.285,7.838-54.427c40.144-8.834,80.288-8.871,120.432-0.112C567.866,245.901,570.457,264.051,572.76,282.201
		 M481.872,277.579c13.474,40.899,30.942,83.046,49.457,125.099c2.267,125.128,0.162,250.256-6.314,375.385
		c-13.495,0.981-26.991,0.969-40.485-0.038C475.673,611.21,474.788,444.395,481.872,277.579"/>
	<path fill="#FFFFFF" stroke="#FFFFFF" stroke-miterlimit="10" d="M718.563,312.944c13.674,21.183,25.024,42.365,34.052,63.547
		c-16.59-5.958-33.18-11.318-49.77-16.079c-8.726-28.96-20.167-57.92-34.323-86.88c-17.184-9.679-34.366-17.833-51.549-24.461
		c0.646,2.14,1.284,4.279,1.914,6.418c3.707,1.37,7.414,2.807,11.121,4.31c53.222,161.815,52.663,323.63-1.676,485.445
		c13.584-5.702,27.168-12.348,40.754-19.935c14.084-28.96,25.453-57.92,34.106-86.881c16.619-4.721,33.238-10.036,49.857-15.945
		c-9.098,21.523-20.593,43.048-34.487,64.572c-18.167,15.004-35.744,29.966-52.619,44.625
		c-13.324,7.802-26.648,14.635-39.974,20.498c-10.955-1.416-22.872-4.347-35.639-8.529c33.698-170.221,32.082-340.442-4.847-510.663
		c26.819,7.852,53.64,19.629,80.459,35.333C682.818,282.979,700.396,297.94,718.563,312.944"/>
</g>
</svg>
